<svg width="76" height="57" viewBox="0 0 76 57" fill="none" xmlns="http://www.w3.org/2000/svg">
<path d="M10.7166 55.3639H12.1518V44.0522L19.1914 43.0962L22.4719 8.12536L12.1518 7.16944V0H10.7166V7.01011L0.533203 6.05419L3.8821 45.1674L10.7166 44.2115V55.3639Z" fill="#FAB829"/>
<path d="M28.4624 56.9997H30.0796V47.7591L41.3233 47.3608L37.2417 11.2746L30.0796 8.88484V1.63574H28.4624V8.32722L22.3015 6.17639L17.7578 48.3167L28.4624 47.8387V56.9997Z" fill="#FAB829"/>
<path d="M45.3692 55.3649H46.8045V43.9735L54.5958 44.4515L56.3044 7.64837L46.8045 7.17041V0.000976562H45.3692V7.17041L36.6211 6.77211L40.2434 43.4955L45.3692 43.8938V55.3649Z" fill="#FAB829"/>
<path d="M13.0119 35.3475H20.3167V33.8144L18.7665 33.9239L13.4112 14.6504H7.1868L7.32773 16.7037L10.1698 16.293L5.84796 33.2942L3.89844 33.1573V34.663H10.0054V33.1573L7.79749 33.2942L8.97191 28.2568H13.1058L14.4212 33.8965L13.0119 33.8144V35.3475ZM9.37121 26.532L11.0389 19.4688L12.6831 26.532H9.37121Z" fill="black"/>
<path d="M48.6427 31.5233H55.9476V29.9901L54.3974 30.0996L49.042 10.8262H42.8177L42.9586 12.8795L45.8007 12.4688L41.4788 29.47L39.5293 29.3331V30.8388H45.6362V29.3331L43.4284 29.47L44.6028 24.4326H48.7367L50.052 30.0723L48.6427 29.9901V31.5233ZM45.0021 22.7078L46.6697 15.6445L48.3139 22.7078H45.0021Z" fill="black"/>
<path d="M20.1338 38.9733H28.0258V37.358L25.5831 37.577L25.8884 26.1334L28.5896 35.5511L31.1263 35.4964L34.0388 25.9144V37.2759L31.8075 37.0842V38.6995H39.6995V37.0842L37.3037 37.2759L38.2667 21.4519L40.3807 21.6162V20.0009H32.1833V21.6162L34.0154 21.4519L33.9684 21.5614L29.9049 30.7875L26.0293 20.9591V20.7127L27.7205 20.877V19.2344H19.6875V20.877L21.5431 20.7127L22.3652 37.577L20.1338 37.358V38.9733Z" fill="black"/>
<path d="M72.7025 15.5639C72.781 14.4979 72.8399 13.4574 72.8792 12.4168C72.9184 11.8838 72.938 11.3762 72.9577 10.8433C72.9773 10.5387 72.9773 10.2342 72.9773 9.95499L74.5474 11.0717L74.9596 11.3762L75.7839 11.9346L75.8036 11.9092C75.5484 11.6554 75.3129 11.4016 75.0774 11.1478C74.9596 11.0209 74.8222 10.894 74.7044 10.7925L74.3512 10.4118C73.939 10.0057 73.5465 9.59967 73.1343 9.21898C73.2717 9.04132 73.4091 8.86366 73.5465 8.66063L74.1353 7.74696C74.5278 7.13785 74.94 6.52874 75.3325 5.89425H75.3129C74.8222 6.37646 74.3512 6.90943 73.8801 7.41703C73.6446 7.67082 73.4091 7.92462 73.1736 8.20379L72.9773 8.43221C72.9577 7.67082 72.9184 6.90943 72.8792 6.12267L72.8399 5.36128C72.8203 5.0821 72.8203 4.82831 72.8006 4.57451C72.781 4.04154 72.7418 3.50857 72.7025 3.00098H72.6829C72.6633 3.50857 72.624 4.04154 72.6044 4.57451C72.5847 4.82831 72.5651 5.0821 72.5651 5.36128L72.5259 6.12267C72.4866 6.96019 72.4474 7.77234 72.4277 8.60987L72.0744 8.33069L71.2501 7.74696C70.7202 7.36627 70.1706 6.98557 69.6211 6.63026C70.0921 7.13785 70.5632 7.64544 71.0539 8.15303C71.309 8.38145 71.5445 8.63525 71.78 8.88904C71.9371 9.04132 72.0941 9.1936 72.2511 9.3205C71.9174 9.80271 71.6034 10.3103 71.2697 10.8179L70.9557 11.2747L70.0725 12.6452L70.0921 12.6706L70.7987 11.9092L71.1716 11.5285L71.5249 11.1224L72.4277 10.1326C72.4277 10.3611 72.4277 10.6149 72.4474 10.8433C72.467 11.3762 72.4866 11.8838 72.5259 12.4168C72.5651 13.4574 72.624 14.4979 72.7025 15.5639Z" fill="#D04D2A"/>
<path d="M66.5122 29.4085C66.6361 27.7266 66.729 26.0849 66.7909 24.4431C66.8528 23.6022 66.8838 22.8013 66.9148 21.9604C66.9457 21.4799 66.9457 20.9993 66.9457 20.5589L69.4231 22.3208L70.0734 22.8013L71.374 23.6823L71.405 23.6422C71.0024 23.2418 70.6308 22.8413 70.2592 22.4409C70.0734 22.2407 69.8566 22.0405 69.6708 21.8803L69.1134 21.2796C68.4631 20.6389 67.8438 19.9982 67.1935 19.3976C67.4102 19.1173 67.627 18.837 67.8438 18.5166L68.7728 17.0751C69.3921 16.114 70.0424 15.153 70.6618 14.1519H70.6308C69.8566 14.9127 69.1134 15.7536 68.3702 16.5545C67.9986 16.9549 67.627 17.3554 67.2554 17.7958L66.9457 18.1562C66.9148 16.9549 66.8528 15.7536 66.7909 14.5123L66.729 13.311C66.698 12.8705 66.698 12.4701 66.667 12.0696C66.6361 11.2287 66.5741 10.3878 66.5122 9.58691H66.4812C66.4503 10.3878 66.3883 11.2287 66.3574 12.0696C66.3264 12.4701 66.2954 12.8705 66.2954 13.311L66.2335 14.5123C66.1716 15.8337 66.1096 17.1151 66.0787 18.4365L65.5213 17.9961L64.2206 17.0751C63.3845 16.4744 62.5175 15.8738 61.6504 15.3131C62.3936 16.114 63.1368 16.9149 63.911 17.7158C64.3135 18.0761 64.6852 18.4766 65.0568 18.877C65.3045 19.1173 65.5522 19.3575 65.8 19.5578C65.2735 20.3186 64.7781 21.1195 64.2516 21.9203L63.7561 22.6411L62.3626 24.8035L62.3936 24.8435L63.5084 23.6422L64.0968 23.0416L64.6542 22.4009L66.0787 20.8392C66.0787 21.1995 66.0787 21.6 66.1096 21.9604C66.1406 22.8013 66.1716 23.6022 66.2335 24.4431C66.2954 26.0849 66.3883 27.7266 66.5122 29.4085Z" fill="#D04D2A"/>
</svg>
