<svg width="332" height="209" viewBox="0 0 332 209" fill="none" xmlns="http://www.w3.org/2000/svg">
<path d="M46.5423 0.273313L74.7659 1.93894L52.0713 156.099L291.385 170.461L297.696 145.729L331.103 186.243L288.818 208.473L291.159 189.983L0.533848 190.828L46.5423 0.273313ZM269.819 175.316C266.667 175.087 264.339 177.223 263.988 179.997C264.166 183.028 266.3 185.378 269.451 185.607C272.602 185.836 275.322 183.564 275.144 180.533C275.495 177.759 272.833 175.151 269.819 175.316ZM249.737 174.352C246.586 174.123 244.258 176.259 244.044 179.426C244.084 182.064 246.356 184.808 249.37 184.643C252.521 184.872 255.241 182.6 255.2 179.962C255.414 176.795 252.888 174.581 249.737 174.352ZM229.793 173.781C226.642 173.553 224.314 175.688 223.963 178.462C224.14 181.493 226.275 183.844 229.426 184.072C232.577 184.301 235.296 182.029 235.119 178.998C235.47 176.224 232.807 173.616 229.793 173.781ZM209.712 172.817C206.561 172.588 203.841 174.86 204.019 177.892C204.059 180.529 206.33 183.273 209.344 183.108C212.496 183.337 215.215 181.065 215.175 178.427C215.389 175.26 212.863 173.046 209.712 172.817ZM189.768 172.246C186.616 172.018 183.897 174.29 183.937 176.927C183.723 180.095 186.249 182.309 189.4 182.538C192.551 182.766 195.271 180.494 195.093 177.463C195.445 174.689 192.782 172.081 189.768 172.246ZM169.686 171.282C166.535 171.053 163.816 173.325 163.993 176.357C163.642 179.13 166.305 181.738 169.319 181.573C172.47 181.802 175.19 179.53 175.149 176.892C175.363 173.725 172.837 171.511 169.686 171.282ZM149.742 170.712C146.591 170.483 143.871 172.755 143.912 175.392C143.698 178.56 146.224 180.774 149.375 181.003C152.526 181.231 155.245 178.959 155.068 175.928C155.028 173.291 152.756 170.546 149.742 170.712ZM129.661 169.747C126.51 169.518 123.79 171.79 123.968 174.822C123.617 177.595 126.279 180.203 129.293 180.038C132.445 180.267 134.773 178.131 135.124 175.358C134.946 172.326 132.812 169.976 129.661 169.747ZM109.717 169.177C106.565 168.948 103.846 171.22 103.886 173.857C103.672 177.025 106.198 179.239 109.349 179.468C112.501 179.697 114.829 177.561 115.043 174.393C115.002 171.756 112.731 169.011 109.717 169.177ZM89.6354 168.212C86.4842 167.983 83.7646 170.255 83.9421 173.287C83.591 176.06 86.254 178.668 89.268 178.503C92.4192 178.732 94.7473 176.596 95.0984 173.823C94.9209 170.791 92.7866 168.441 89.6354 168.212ZM69.6912 167.642C66.54 167.413 63.8205 169.685 63.8608 172.322C63.6469 175.49 66.1727 177.704 69.3239 177.933C72.4751 178.162 74.666 175.632 75.0171 172.858C74.9768 170.221 72.7052 167.476 69.6912 167.642ZM49.6099 166.677C46.0673 166.585 43.3478 168.857 43.3881 171.494C43.1742 174.661 45.7 176.876 49.2425 176.968C52.3937 177.197 54.7219 175.061 55.073 172.288C54.8955 169.256 52.7611 166.906 49.6099 166.677ZM28.8628 165.061C26.103 164.696 23.3835 166.968 22.7782 170.271C22.407 171.726 22.5643 173.439 23.3672 174.485C24.3073 175.926 25.7558 176.305 27.4585 176.154C31.0011 176.247 33.7206 173.975 33.6803 171.338C33.6601 170.019 33.5028 168.306 32.6999 167.26C31.7598 165.82 30.3113 165.44 28.8628 165.061ZM32.8859 145.102C29.9889 144.342 27.1322 146.22 26.644 148.6C26.0387 151.903 28.056 155.178 30.8159 155.543C33.7129 156.303 36.4324 154.03 37.0376 150.727C37.3887 147.953 35.6457 145.467 32.8859 145.102ZM36.0293 127.658C33.2695 127.293 30.4128 129.171 29.9246 131.55C29.5735 134.324 31.3165 136.81 34.2135 137.569C36.9733 137.935 39.4386 136.193 40.3183 133.677C40.6693 130.904 38.9263 128.417 36.0293 127.658ZM39.31 110.609C36.5501 110.244 33.5563 111.727 33.2052 114.501C32.7169 116.88 34.5971 119.761 37.3569 120.126C40.2539 120.885 42.7192 119.143 43.4617 116.234C43.95 113.854 42.0698 110.974 39.31 110.609ZM42.5906 93.5592C39.6936 92.8 37.2283 94.5418 36.4858 97.4514C35.9976 99.8308 37.7405 102.317 40.6375 103.076C43.3974 103.442 46.3912 101.958 46.7423 99.1842C47.0934 96.4108 45.3504 93.9243 42.5906 93.5592ZM45.734 76.1157C42.9742 75.7506 40.5089 77.4924 39.6292 80.0079C39.2782 82.7814 41.0212 85.2679 43.9182 86.0271C46.678 86.3922 49.5347 84.5141 50.0229 82.1348C50.374 79.3614 48.631 76.8749 45.734 76.1157ZM49.0146 59.0663C46.2548 58.7012 43.6523 60.0489 42.9099 62.9585C42.5588 65.732 44.3018 68.2185 47.0616 68.5836C49.9586 69.3428 52.8153 67.4648 53.1664 64.6913C53.6546 62.312 51.9116 59.8255 49.0146 59.0663ZM52.2953 42.0169C49.3983 41.2577 46.9329 42.9994 46.1905 45.9091C45.7022 48.2884 47.5824 51.1691 50.3422 51.5342C53.2392 52.2934 56.0959 50.4154 56.447 47.6419C56.9352 45.2626 55.0551 42.382 52.2953 42.0169ZM55.5759 24.9675C52.6789 24.2083 50.2136 25.9501 49.7253 28.3294C48.9828 31.2391 50.7258 33.7255 53.6228 34.4848C56.3826 34.8499 59.3765 33.366 59.7276 30.5925C60.0787 27.8191 58.3357 25.3326 55.5759 24.9675Z" fill="black"/>
</svg>
