<svg width="834" height="1194" fill="none" xmlns="http://www.w3.org/2000/svg"><path d="M365.502 27.12c.92 0 1.637-.4 2.069-1.13h.101V27h1.105v-4.685c0-1.421-.933-2.278-2.603-2.278-1.46 0-2.501.723-2.678 1.796l-.007.038h1.105l.006-.019c.178-.533.717-.838 1.536-.838 1.022 0 1.536.457 1.536 1.301v.622l-1.961.121c-1.593.095-2.495.8-2.495 2.019v.012c0 1.245.984 2.032 2.286 2.032zm-1.156-2.056v-.013c0-.679.457-1.047 1.498-1.11l1.828-.115v.622c0 .978-.818 1.714-1.942 1.714-.793 0-1.384-.406-1.384-1.098zM370.717 27h1.105v-4.24c0-.965.679-1.746 1.574-1.746.863 0 1.422.527 1.422 1.34V27h1.105v-4.399c0-.87.628-1.587 1.58-1.587.965 0 1.428.502 1.428 1.51V27h1.105v-4.729c0-1.435-.781-2.234-2.177-2.234-.946 0-1.727.476-2.095 1.2h-.102c-.317-.712-.965-1.2-1.891-1.2-.895 0-1.543.425-1.847 1.161h-.102v-1.04h-1.105V27zm13.113.12c.92 0 1.638-.4 2.069-1.13h.102V27h1.104v-4.685c0-1.421-.933-2.278-2.602-2.278-1.46 0-2.501.723-2.679 1.796l-.006.038h1.104l.007-.019c.177-.533.717-.838 1.536-.838 1.022 0 1.536.457 1.536 1.301v.622l-1.962.121c-1.593.095-2.494.8-2.494 2.019v.012c0 1.245.984 2.032 2.285 2.032zm-1.155-2.056v-.013c0-.679.457-1.047 1.498-1.11l1.828-.115v.622c0 .978-.819 1.714-1.943 1.714-.793 0-1.383-.406-1.383-1.098zm6.276-1.238h4.265v-1.028h-4.265v1.028zm8.028 3.295c.92 0 1.637-.4 2.069-1.13h.102V27h1.104v-4.685c0-1.421-.933-2.278-2.603-2.278-1.46 0-2.501.723-2.678 1.796l-.007.038h1.105l.006-.019c.178-.533.718-.838 1.536-.838 1.022 0 1.537.457 1.537 1.301v.622l-1.962.121c-1.593.095-2.495.8-2.495 2.019v.012c0 1.245.984 2.032 2.286 2.032zm-1.156-2.057v-.013c0-.679.457-1.047 1.498-1.11l1.829-.115v.622c0 .978-.819 1.714-1.943 1.714-.793 0-1.384-.406-1.384-1.098zM402.195 27h1.104v-4.05c0-1.2.692-1.936 1.784-1.936s1.599.59 1.599 1.822V27h1.105v-4.43c0-1.626-.857-2.533-2.393-2.533-1.009 0-1.651.425-1.993 1.149h-.102v-1.029h-1.104V27zm7.843 2.4c1.213 0 1.778-.445 2.343-1.981l2.672-7.262h-1.162l-1.872 5.63h-.102l-1.879-5.63h-1.18l2.533 6.85-.127.406c-.248.787-.629 1.072-1.257 1.072a2.62 2.62 0 01-.457-.031v.907c.152.026.342.038.488.038zm8.828-2.35c.216 0 .426-.025.641-.063v-.94a4.614 4.614 0 01-.507.026c-.711 0-.991-.323-.991-1.13v-3.872h1.498v-.914h-1.498v-1.77h-1.142v1.77h-1.079v.914h1.079v4.152c0 1.307.59 1.828 1.999 1.828zm2.798-8.213a.763.763 0 00.761-.762.763.763 0 00-.761-.761.764.764 0 00-.762.761c0 .42.343.762.762.762zM421.105 27h1.105v-6.843h-1.105V27zm3.109 0h1.104v-4.24c0-.965.679-1.746 1.574-1.746.864 0 1.422.527 1.422 1.34V27h1.105v-4.399c0-.87.628-1.587 1.58-1.587.965 0 1.428.502 1.428 1.51V27h1.105v-4.729c0-1.435-.781-2.234-2.177-2.234-.946 0-1.727.476-2.095 1.2h-.102c-.317-.712-.964-1.2-1.891-1.2-.895 0-1.543.425-1.847 1.161h-.102v-1.04h-1.104V27zm14.026.12c1.612 0 2.59-.914 2.825-1.84l.013-.051h-1.105l-.025.057c-.184.413-.756.85-1.682.85-1.219 0-2-.825-2.032-2.24h4.926v-.432c0-2.044-1.13-3.427-2.99-3.427-1.86 0-3.066 1.447-3.066 3.56v.007c0 2.146 1.181 3.517 3.136 3.517zm-.076-6.1c1.009 0 1.758.642 1.872 1.994h-3.783c.121-1.302.895-1.994 1.911-1.994zm5.533 6.044a.827.827 0 00.825-.826.823.823 0 00-.825-.825.828.828 0 00-.825.825c0 .451.375.826.825.826zm5.426.057c1.644 0 2.564-.883 2.843-2.12l.013-.07-1.092.006-.012.038c-.254.762-.838 1.168-1.759 1.168-1.218 0-2.006-1.01-2.006-2.583v-.013c0-1.543.775-2.533 2.006-2.533.984 0 1.594.546 1.765 1.219l.006.019h1.098l-.006-.038c-.203-1.219-1.2-2.177-2.863-2.177-1.917 0-3.135 1.383-3.135 3.51v.013c0 2.17 1.225 3.56 3.142 3.56zm7.209 0c1.949 0 3.155-1.346 3.155-3.536v-.013c0-2.196-1.206-3.535-3.155-3.535-1.949 0-3.155 1.339-3.155 3.535v.013c0 2.19 1.206 3.536 3.155 3.536zm0-.978c-1.295 0-2.025-.946-2.025-2.558v-.013c0-1.618.73-2.558 2.025-2.558s2.025.94 2.025 2.558v.013c0 1.612-.73 2.558-2.025 2.558zm4.79.857h1.105v-4.24c0-.965.679-1.746 1.574-1.746.863 0 1.422.527 1.422 1.34V27h1.105v-4.399c0-.87.628-1.587 1.58-1.587.965 0 1.428.502 1.428 1.51V27h1.105v-4.729c0-1.435-.781-2.234-2.177-2.234-.946 0-1.727.476-2.095 1.2h-.102c-.317-.712-.965-1.2-1.891-1.2-.895 0-1.543.425-1.848 1.161h-.101v-1.04h-1.105V27z" fill="#000"/><path d="M606.751 214.223l.013-.054.011-.055c2.798-14.195-8.43-27.405-22.888-25.204l-.007.001-.007.001-327.14 51.557-.028.004-.028.005c-12.092 2.166-19.995 15.108-15.713 26.807l41.495 129.465.014.044.015.043c2.847 7.944 10.649 13.739 19.276 13.739h242.257c9.393 0 17.236-6.606 19.363-15.92l.004-.018 43.363-180.415z" fill="#D9D9D9" stroke="#7D7E34" stroke-width="5.411"/><path d="M304.687 404.226h236.439c7.861 0 14.513-5.443 16.327-13.304l42.33-173.55c2.419-12.094-7.257-22.979-19.351-21.165l-319.284 49.586c-10.28 1.814-16.932 12.699-13.304 22.374l40.516 124.569c2.418 6.652 9.07 11.49 16.327 11.49z" fill="#6EA5A0"/><path d="M298.977 383.179c4.346 0 11.982-6.578 16.093-12.569-2.114 3.172-3.054 4.581-3.406 6.578-.47 2.937 3.759 5.991 7.4 5.991 5.169 0 10.455-7.753 16.915-14.448-.587-1.175-1.292-1.292-2.232-.353-4.111 4.112-9.045 8.575-12.099 10.22-2.114 1.175-2.584.352-2.232-1.41 1.41-8.457 19.5-27.957 23.376-30.894-1.644-1.996-7.635-4.228-10.454-1.174l-.823 1.057c-.822-2.467-6.46-4.581-8.34-4.581-8.34 0-29.484 24.198-31.246 34.653-.587 3.524 4.111 6.93 7.048 6.93zm1.057-4.581c-.822 0-.704-.47-.587-.94.94-5.403 18.56-26.312 22.906-29.132 2.467-1.762 7.283-1.409 6.931.353-10.22 12.451-25.726 29.719-29.25 29.719z" fill="#2D2D2B"/><path d="M357.117 383.179c7.518 0 10.454-7.753 16.915-14.448-.587-1.175-1.292-1.292-2.232-.353-4.229 3.994-11.159 10.22-13.156 10.22-.94 0-1.41-.587-1.175-1.997 1.41-7.635 18.795-22.436 18.795-27.487 0-3.172-4.934-7.166-7.635-7.166-2.702 0-11.395 9.398-19.03 17.033 4.581-5.873 8.575-10.807 9.515-13.039.94-2.349-2.702-4.934-6.696-3.289-2.349 7.4-23.728 29.837-23.728 33.948-.118 3.172 3.641 5.991 6.93 5.991 0-5.051 28.075-36.415 33.126-36.415.587 0 .822.235.587.94-.352 2.584-20.909 20.087-20.909 27.722 0 2.937 5.051 8.34 8.693 8.34z" fill="#2D2D2B"/><path d="M355.866 423.588c13.861 0 31.951-39.352 63.197-79.056-.47-2.819-6.93-7.4-9.75-3.876-5.168 10.337-24.198 35.945-32.42 35.945-.588 0-.588-.235-.588-.94 0-5.168 21.614-24.55 21.614-30.071 0-2.937-3.289-6.461-7.518-5.521-1.409 7.635-21.496 26.43-21.496 33.595 0 3.172 6.108 8.34 8.81 8.34 1.762 0 7.518-4.228 12.334-9.162-3.524 4.816-7.048 9.75-10.572 14.448-.47-.469-1.41-.704-2.819-.704-16.798 1.527-30.424 15.975-32.891 23.61-1.997 6.226 7.635 13.392 12.099 13.392zm-2.232-6.931c-1.409 0-1.175-1.879-.94-2.702 1.997-7.165 14.331-22.201 24.903-24.315-12.099 16.093-19.969 27.017-23.963 27.017zM418.059 382.944c5.756 0 19.03-14.683 19.03-16.328 0-1.057-1.292-1.879-1.88-1.409-7.752 7.752-14.683 11.042-17.385 11.042-1.644 0-2.232-.823-2.232-2.467 0-4.229 13.157-17.855 21.732-28.31 2.937-.352 4.229-.587 6.461-.235 1.174-.939 2.231-3.289 1.409-3.641-.94-.353-2.467-.47-4.346-.47 3.994-5.169 5.638-7.166 5.638-9.515 0-1.644-2.584-5.051-7.048-4.464-1.057 4.464-3.054 7.753-7.048 13.274-1.879-.352-3.876-.94-5.991-1.762-2.701 1.292-4.933 5.051-2.701 7.401.47.587 1.997.704 3.876.587-7.283 9.045-20.439 18.325-20.674 23.493-.235 6.461 7.518 12.804 11.159 12.804z" fill="#2D2D2B"/><path d="M460.3 340.069c2.466 0 5.638-1.762 6.225-4.934.47-2.819-1.409-4.699-3.993-4.699-4.112 0-5.874 2.115-6.344 4.699-.587 3.054 2.115 4.934 4.112 4.934zm-23.611 42.875c5.991 0 17.972-9.632 22.906-16.798l-1.997-1.644c-5.169 5.403-14.566 13.626-18.795 13.626-.705 0-.822-.47-.94-1.527-.117-5.404 21.614-23.611 21.614-28.897 0-5.286-4.346-6.696-8.692-5.521-1.057 7.87-21.144 26.783-21.144 31.716 0 3.877 4.816 9.045 7.048 9.045z" fill="#2D2D2B"/><path d="M497.421 383.179c5.169 0 10.455-7.753 14.566-14.448-.587-1.175-1.41-1.41-2.232-.353-4.346 5.286-11.159 10.22-13.156 10.22-.94 0-1.41-.587-1.175-1.997 1.41-7.635 18.795-22.789 18.795-27.487 0-2.937-4.934-7.166-7.636-7.166-2.231 0-8.927 6.578-15.153 13.039 2.115-2.937 3.759-5.403 3.994-7.048.235-1.997-3.759-5.991-6.461-5.991-2.231 0-9.514 6.578-16.21 13.156 3.289-4.111 5.991-7.4 6.696-9.162.939-2.349-2.702-4.934-6.696-3.289-5.991 10.807-23.728 26.782-23.728 32.773 0 4.347 2.584 7.871 6.93 7.166 6.931-14.684 30.307-36.415 33.008-36.415.588 0 .823.235.588.94-.353 2.584-21.967 21.849-21.967 29.014 0 3.172 4.229 6.461 7.988 5.521 6.813-14.683 28.427-35.475 31.129-35.475.587 0 .822.235.587.94-.352 2.584-21.026 20.322-21.026 26.547 0 5.286 6.343 9.515 11.159 9.515z" fill="#2D2D2B"/><path d="M516.126 383.179c7.048 0 21.379-10.102 28.544-17.502.94-1.293-.352-1.645-1.409-1.88-7.636 7.753-21.497 14.683-27.253 14.683-2.584 0-2.466-3.876-.939-6.46.587.822 1.644 1.409 2.701 1.409 9.045 0 26.9-16.21 28.31-24.55.587-3.524-4.111-7.871-7.166-7.871-11.276 0-32.186 20.322-32.186 32.304 0 4.111 4.582 9.867 9.398 9.867zm.352-13.626c6.461-10.22 19.147-24.433 24.081-24.433.705 0 .705.587.587 1.057-.939 5.286-16.445 19.265-24.668 23.376z" fill="#2D2D2B"/><path d="M330.061 331.02h6.134v-41.478l30.086-3.505 14.02-128.231-44.106-3.505v-26.289h-6.134v25.705l-43.523-3.505 14.313 143.419 29.21-3.505v40.894z" fill="#000"/><path d="M405.899 337.02h6.912v-33.883l48.054-1.461-17.444-132.32-30.61-8.763v-26.581h-6.912v24.536l-26.331-7.886-19.419 154.519 45.75-1.752v33.591z" fill="#000"/><path d="M478.142 331.02h6.134v-41.77l33.3 1.753 7.302-134.949-40.602-1.753v-26.289h-6.134v26.289l-37.388-1.46 15.481 134.656 21.907 1.461v42.062z" fill="#000"/><path d="M339.865 257.625h31.22v-5.621l-6.626.401-22.888-70.672h-26.602l.602 7.529 12.147-1.505-18.471 62.339-8.332-.502v5.522h26.1v-5.522l-9.436.502 5.019-18.471h17.668l5.622 20.68-6.023-.301v5.621zm-15.56-32.324l7.127-25.9 7.027 25.9h-14.154zM492.166 243.595h31.22v-5.621l-6.626.401-22.888-70.671H467.27l.602 7.529 12.147-1.506-18.471 62.339-8.332-.502v5.522h26.1v-5.522l-9.436.502 5.019-18.471h17.668l5.622 20.68-6.023-.301v5.621zm-15.56-32.324l7.127-25.899 7.027 25.899h-14.154z" fill="#E6A311"/><path d="M370.295 270.918h33.73v-5.923l-10.44.803 1.305-41.961 11.544 34.533 10.842-.201 12.448-35.135v41.66l-9.537-.703v5.923h33.73v-5.923l-10.24.703 4.116-58.023 9.035.602v-5.923h-35.035v5.923l7.83-.602-.201.401-17.366 33.83-16.564-36.038v-.904l7.228.603v-6.023h-34.332v6.023l7.93-.603 3.514 61.838-9.537-.803v5.923z" fill="#E6A311"/><path d="M574.464 157.628c.232-2.702.406-5.34.522-7.978.116-1.351.174-2.638.232-3.989.058-.772.058-1.544.058-2.251l4.639 2.83 1.218.772 2.435 1.416.058-.065a70.246 70.246 0 01-2.146-1.93 13.435 13.435 0 00-1.101-.9l-1.044-.965c-1.218-1.03-2.378-2.059-3.595-3.024.405-.451.811-.901 1.217-1.416l1.74-2.316c1.16-1.544 2.378-3.088 3.537-4.696h-.058c-1.449 1.222-2.841 2.573-4.233 3.86a60.033 60.033 0 00-2.088 1.994l-.579.579c-.058-1.93-.174-3.86-.29-5.854l-.116-1.93c-.058-.708-.058-1.351-.116-1.994a85.133 85.133 0 00-.29-3.989h-.058c-.058 1.286-.174 2.637-.232 3.989-.058.643-.116 1.286-.116 1.994l-.116 1.93c-.116 2.123-.232 4.182-.29 6.305l-1.044-.708-2.435-1.48a121.69 121.69 0 00-4.814-2.83c1.392 1.286 2.784 2.573 4.234 3.86.753.579 1.449 1.222 2.145 1.865.464.386.928.773 1.392 1.094-.986 1.223-1.914 2.509-2.9 3.796l-.927 1.158-2.61 3.474.058.064 2.088-1.93 1.102-.965 1.043-1.029 2.668-2.509c0 .579 0 1.222.058 1.801.058 1.351.116 2.638.232 3.989.116 2.638.29 5.276.522 7.978zM556.17 192.722c.366-4.264.641-8.426.824-12.587.183-2.132.274-4.162.366-6.294.091-1.218.091-2.436.091-3.552l7.32 4.466 1.921 1.218 3.843 2.233.092-.101c-1.19-1.016-2.288-2.031-3.386-3.046a21.49 21.49 0 00-1.738-1.421l-1.647-1.522c-1.921-1.624-3.751-3.249-5.673-4.771.641-.711 1.281-1.421 1.922-2.233l2.745-3.655c1.829-2.436 3.751-4.872 5.581-7.41h-.092c-2.287 1.929-4.483 4.061-6.679 6.091-1.098 1.015-2.196 2.03-3.294 3.147l-.915.913c-.091-3.045-.274-6.09-.457-9.237l-.183-3.045c-.092-1.117-.092-2.132-.183-3.147-.092-2.132-.275-4.263-.458-6.293h-.091c-.092 2.03-.275 4.161-.366 6.293-.092 1.015-.183 2.03-.183 3.147l-.183 3.045c-.183 3.35-.366 6.598-.458 9.948l-1.646-1.117-3.843-2.335a194.266 194.266 0 00-7.594-4.466c2.196 2.03 4.391 4.06 6.679 6.091 1.189.913 2.287 1.928 3.385 2.943.732.609 1.464 1.218 2.196 1.726-1.555 1.928-3.019 3.959-4.575 5.989l-1.464 1.827-4.117 5.481.092.102 3.293-3.045 1.739-1.523 1.647-1.624 4.208-3.959c0 .914 0 1.929.092 2.842.091 2.132.183 4.162.366 6.294.183 4.161.457 8.323.823 12.587zM282.453 153.987c.255-2.969.446-5.867.574-8.765.127-1.484.191-2.898.255-4.382.063-.848.063-1.696.063-2.474l5.097 3.11 1.338.848 2.676 1.555.063-.07c-.828-.707-1.592-1.414-2.357-2.121a14.812 14.812 0 00-1.21-.989l-1.147-1.06c-1.338-1.131-2.612-2.262-3.95-3.322.446-.495.892-.99 1.338-1.555l1.911-2.545c1.274-1.696 2.612-3.392 3.886-5.159h-.063c-1.593 1.342-3.122 2.827-4.651 4.24a66.264 66.264 0 00-2.294 2.191l-.637.636c-.063-2.12-.191-4.24-.318-6.431l-.128-2.121c-.063-.777-.063-1.484-.127-2.191a93.373 93.373 0 00-.319-4.382h-.063c-.064 1.414-.191 2.898-.255 4.382-.064.707-.128 1.414-.128 2.191l-.127 2.121c-.127 2.332-.255 4.594-.319 6.926l-1.146-.777-2.676-1.626c-1.72-1.06-3.504-2.12-5.288-3.11a306.242 306.242 0 004.651 4.241c.828.636 1.593 1.343 2.357 2.05.51.424 1.019.848 1.529 1.201-1.083 1.343-2.102 2.757-3.185 4.17l-1.02 1.273-2.867 3.816.064.071 2.294-2.12 1.21-1.061 1.147-1.13 2.93-2.757c0 .636 0 1.343.064 1.979.064 1.484.128 2.898.255 4.382.127 2.898.319 5.796.573 8.765zM262.355 192.542c.402-4.684.703-9.256.904-13.829.201-2.341.302-4.572.402-6.914.101-1.338.101-2.676.101-3.903l8.041 4.907 2.111 1.338 4.222 2.454.101-.112c-1.307-1.115-2.513-2.23-3.72-3.345a23.242 23.242 0 00-1.91-1.562l-1.809-1.673c-2.111-1.784-4.121-3.568-6.232-5.241.704-.78 1.407-1.561 2.111-2.453l3.015-4.015c2.011-2.676 4.122-5.353 6.132-8.141h-.1c-2.513 2.119-4.926 4.461-7.338 6.691-1.206 1.116-2.413 2.231-3.619 3.457l-1.005 1.004c-.101-3.345-.302-6.691-.503-10.148l-.201-3.346c-.1-1.226-.1-2.341-.201-3.457-.1-2.341-.301-4.683-.502-6.914h-.101c-.1 2.231-.301 4.573-.402 6.914-.1 1.116-.201 2.231-.201 3.457l-.201 3.346c-.201 3.68-.402 7.249-.503 10.929l-1.809-1.227-4.222-2.565a212.633 212.633 0 00-8.343-4.907c2.413 2.231 4.825 4.461 7.338 6.691 1.307 1.004 2.513 2.119 3.719 3.234.804.67 1.609 1.339 2.413 1.896-1.709 2.119-3.317 4.349-5.026 6.58l-1.609 2.007-4.523 6.022.101.112 3.618-3.346 1.91-1.673 1.81-1.784 4.623-4.349c0 1.003 0 2.119.101 3.122.1 2.342.201 4.573.402 6.914.201 4.573.503 9.145.905 13.829zM258.585 974.385c.257-2.698.45-5.332.578-7.965.129-1.349.193-2.634.257-3.983.064-.771.064-1.542.064-2.248l5.139 2.826 1.349.771 2.698 1.413.064-.064a77.66 77.66 0 01-2.376-1.927 14.892 14.892 0 00-1.221-.9l-1.156-.963c-1.349-1.028-2.634-2.056-3.983-3.019.45-.45.9-.9 1.349-1.413l1.927-2.313c1.285-1.542 2.634-3.083 3.919-4.689h-.065c-1.605 1.22-3.147 2.569-4.689 3.854a63.99 63.99 0 00-2.312 1.991l-.643.578c-.064-1.927-.192-3.854-.321-5.845l-.128-1.927c-.064-.707-.064-1.349-.129-1.991-.064-1.349-.192-2.698-.321-3.983h-.064c-.064 1.285-.193 2.634-.257 3.983-.064.642-.129 1.284-.129 1.991l-.128 1.927c-.129 2.12-.257 4.175-.321 6.295l-1.156-.707-2.698-1.477a140.316 140.316 0 00-5.332-2.826c1.542 1.284 3.083 2.569 4.689 3.854.835.578 1.606 1.22 2.377 1.863.514.385 1.028.771 1.542 1.092-1.092 1.22-2.12 2.505-3.212 3.79l-1.028 1.156-2.891 3.469.065.064 2.312-1.927 1.221-.964 1.156-1.028 2.955-2.505c0 .578 0 1.221.064 1.799.064 1.349.128 2.634.257 3.983.128 2.633.321 5.267.578 7.965z" fill="#D04D2A"/><path d="M190.381 364a356.27 356.27 0 001.168-16.303c.26-2.761.39-5.39.519-8.151.13-1.578.13-3.155.13-4.602l10.385 5.785 2.727 1.578 5.452 2.892.13-.131c-1.688-1.315-3.246-2.63-4.804-3.944a29.686 29.686 0 00-2.466-1.841l-2.337-1.972c-2.726-2.104-5.322-4.207-8.048-6.179.908-.921 1.817-1.841 2.726-2.893l3.894-4.733c2.597-3.155 5.323-6.31 7.919-9.597h-.13c-3.245 2.498-6.361 5.259-9.476 7.888-1.558 1.315-3.116 2.63-4.674 4.076l-1.298 1.183c-.13-3.944-.389-7.888-.649-11.964l-.259-3.944c-.13-1.446-.13-2.761-.26-4.076-.13-2.761-.389-5.522-.649-8.151h-.13c-.13 2.629-.389 5.39-.519 8.151-.13 1.315-.26 2.63-.26 4.076l-.259 3.944c-.26 4.339-.52 8.546-.65 12.884l-2.336-1.446-5.452-3.024A280.43 280.43 0 00170 317.722c3.116 2.629 6.231 5.258 9.476 7.888 1.688 1.183 3.246 2.498 4.804 3.813 1.038.788 2.077 1.577 3.115 2.235-2.207 2.498-4.284 5.127-6.491 7.757l-2.077 2.366-5.841 7.1.13.131 4.673-3.944 2.466-1.972 2.337-2.104 5.971-5.127c0 1.183 0 2.498.13 3.681.13 2.761.26 5.39.52 8.151A356.27 356.27 0 00190.381 364z" fill="#6EA5A0"/><path d="M661.914 484.172l10.256-25.85c-24.624-9.13-49.18-23.7-40.289-38.187 15.324-24.716 103.294-44.421 126.533-29.736 22.521 14.08-33.899 74.025-46.097 76.891-4.006.942-16.641-1.32-30.564-5.796l-19.839 22.678z" fill="#fff"/><path d="M704.883 437.906c-.052 1.053-.456 1.922-1.212 2.607-.756.685-1.66 1.002-2.713.95a3.901 3.901 0 01-2.69-1.215c-.685-.756-1.002-1.66-.95-2.713.051-1.053.455-1.922 1.211-2.607.814-.738 1.748-1.081 2.801-1.029 1.053.051 1.92.483 2.603 1.294.685.756 1.001 1.66.95 2.713zm10.045-24.672c-.59.693-1.26 1.327-2.01 1.901a68.826 68.826 0 01-2.169 1.727l-.087.079-.087.079a34.353 34.353 0 00-3.123 2.513c-.986.841-1.787 1.885-2.404 3.132l-.564 1.306c-.13.382-.261.792-.394 1.23a19.88 19.88 0 00-.621 2.47c-.096.828-.195 1.712-.297 2.652l-3.242-.16c.225-2.322.606-4.414 1.141-6.277a30.256 30.256 0 012.356-5.55c.429-.813.913-1.622 1.453-2.429a34.774 34.774 0 011.793-2.578c.122-.217.271-.431.449-.645.177-.213.326-.428.448-.644a25.49 25.49 0 001.548-2.674c.492-.976.874-1.957 1.144-2.944.13-.382.233-.766.307-1.152.077-.44.125-.854.144-1.242a6.78 6.78 0 00-.226-2.178 5.897 5.897 0 00-.908-1.878c-.835-1.096-1.74-1.891-2.716-2.383-.973-.548-1.986-.848-3.039-.9-1.887-.037-3.64.599-5.26 1.909-1.617 1.253-2.644 2.925-3.08 5.015.341-.15.679-.245 1.014-.284.338-.094.646-.135.923-.121 1.108.054 2.03.516 2.765 1.386.79.872 1.158 1.862 1.104 2.971-.024.498-.16.992-.406 1.479-.188.436-.515.864-.98 1.286a3.375 3.375 0 01-1.371.766 4.964 4.964 0 01-1.591.171 4.354 4.354 0 01-2.295-.779 3.106 3.106 0 01-1.32-1.981 13.851 13.851 0 01-.404-1.937 22.195 22.195 0 01.006-1.833c.225-3.433 1.664-6.168 4.32-8.204 2.711-2.033 5.783-2.938 9.216-2.714l.831.041c.277.014.553.055.828.124.277.014.552.055.827.124l.823.207c2.904.81 5.056 2.249 6.454 4.317 1.399 2.069 2.038 4.322 1.918 6.761a11.526 11.526 0 01-.948 4.036c-.509 1.309-1.266 2.577-2.27 3.805zM91.568 159.05c1.358 5.601 5.759 8.395 11.229 7.069 3.126-.758 5.707-7.176 8.833-7.934 16.671-4.042 47.037 13.142 2.755 23.878l-4.949 1.2c-1.433.348-1.606 1.906-.549 3.994l9.513 19.896 2.735-.664-.557-8.552 4.819-1.169c19.797-4.799 20.017-17.54 18.766-24.407-4.784-26.557-22.821-36.112-43.53-31.091-7.684 1.863-11.022 9.705-9.065 17.78zm36.005 79.112c6.903-1.674 10.356-7.337 8.588-14.631-1.737-7.163-7.401-10.616-14.304-8.943-7.033 1.705-10.356 7.337-8.619 14.501 1.768 7.293 7.302 10.778 14.335 9.073z" fill="#000"/></svg>
