<svg width="24" height="24" viewBox="0 0 24 24" fill="none" xmlns="http://www.w3.org/2000/svg">
<path d="M14.2995 15.7998C12.8995 15.7998 11.4995 15.1998 10.4995 14.1998C9.09954 12.7998 8.59954 10.9998 8.99954 9.1998C8.99954 8.5998 9.49954 8.1998 9.99954 8.3998C10.4995 8.4998 10.8995 8.9998 10.7995 9.5998C10.5995 10.6998 10.8995 11.8998 11.6995 12.6998C12.5995 13.5998 13.7995 13.8998 14.8995 13.6998C15.4995 13.5998 16.0995 13.2998 16.4995 12.8998C16.5995 12.7998 16.5995 12.7998 16.6995 12.7998L19.5995 9.8998C20.8995 8.5998 20.8995 6.3998 19.5995 4.9998C18.1995 3.5998 15.9995 3.5998 14.5995 4.8998L13.0995 6.3998L12.9995 6.4998C12.6995 6.8998 11.9995 6.9998 11.5995 6.6998C11.1995 6.3998 11.0995 5.6998 11.3995 5.2998C11.5995 5.0998 11.6995 4.9998 11.7995 4.9998L13.2995 3.4998C15.3995 1.3998 18.8995 1.3998 20.9995 3.4998C23.1995 5.6998 23.1995 9.0998 21.0995 11.2998L18.1995 14.1998C18.0995 14.2998 17.9995 14.3998 17.8995 14.4998C17.1995 15.0998 16.3995 15.4998 15.3995 15.6998C14.9995 15.6998 14.5995 15.7998 14.2995 15.7998Z" fill="black"/>
<path d="M7.89963 22.0999C6.49963 22.0999 5.09963 21.5999 3.99963 20.4999C1.79963 18.2999 1.79963 14.8999 3.89963 12.6999L6.79963 9.79986C6.99963 9.79986 6.99963 9.69986 7.09963 9.59986C7.79963 8.99986 8.59963 8.59986 9.59963 8.39986C11.3996 7.99986 13.1996 8.59986 14.5996 9.89986C15.9996 11.2999 16.4996 13.0999 16.0996 14.8999C15.9996 15.3999 15.4996 15.7999 14.8996 15.6999C14.3996 15.5999 13.9996 15.0999 14.0996 14.4999C14.2996 13.3999 13.9996 12.1999 13.1996 11.3999C12.2996 10.4999 11.0996 10.1999 9.99963 10.3999C9.39963 10.4999 8.79963 10.7999 8.39963 11.1999C8.29963 11.2999 8.29963 11.2999 8.19963 11.2999L5.29963 14.1999C3.99963 15.4999 3.99963 17.6999 5.29963 19.0999C6.69963 20.4999 8.89963 20.4999 10.2996 19.1999L11.7996 17.6999L11.8996 17.5999C12.1996 17.1999 12.8996 17.0999 13.2996 17.3999C13.6996 17.6999 13.7996 18.3999 13.4996 18.7999C13.3996 18.8999 13.2996 18.9999 13.1996 19.0999L11.6996 20.5999C10.6996 21.5999 9.29963 22.0999 7.89963 22.0999Z" fill="black"/>
</svg>
