<svg width="225" height="111" viewBox="0 0 225 111" fill="none" xmlns="http://www.w3.org/2000/svg">
<path fill-rule="evenodd" clip-rule="evenodd" d="M2.10533 30.9356C2.07061 25.7548 6.00165 21.5057 11.1621 21.1461L210.6 7.24763C216.647 6.82624 221.806 11.8564 221.539 17.9136L218.103 95.8577C217.853 101.547 212.894 105.754 207.212 105.099L11.4875 82.5299C6.35772 81.9384 2.41778 77.5597 2.38328 72.412L2.10533 30.9356ZM17.9064 25.3279C12.6008 25.5153 8.47317 29.8229 8.50877 35.1353L8.72219 66.9816C8.75717 72.2018 12.8047 76.6176 18.0145 77.1194L198.064 94.463C203.879 95.0232 208.815 90.523 208.776 84.6957L208.404 29.1519C208.365 23.4194 203.522 18.7718 197.797 18.974L17.9064 25.3279Z" fill="#D35530"/>
<path d="M11.8497 37.3932C11.814 32.068 15.9571 27.7543 21.2728 27.5821L195.47 21.9382C201.182 21.7532 206.005 26.3973 206.044 32.1196L206.374 81.4872C206.413 87.2992 201.507 91.7953 195.709 91.2613L21.3661 75.203C16.1405 74.7217 12.0702 70.2965 12.0351 65.0586L11.8497 37.3932Z" fill="#E6A311"/>
<path d="M134.156 0.491699H123.224L124.342 13.3687L134.156 12.6723V0.491699Z" fill="black"/>
<path d="M89.3871 36.6994C89.2478 39.4573 89.1294 42.1943 89.0319 44.9105C88.9344 47.6127 88.8647 50.3288 88.8229 53.0588C89.1712 53.0867 89.5194 53.1006 89.8676 53.1006C90.2297 53.1006 90.5849 53.1006 90.9332 53.1006C91.3789 53.1006 91.8316 53.0937 92.2912 53.0797C92.7648 53.0658 93.2384 53.0449 93.712 53.0171C93.7398 52.4042 93.7537 51.8052 93.7537 51.2202C93.7537 50.6213 93.7537 50.0084 93.7537 49.3816C93.7537 47.2644 93.7329 45.1542 93.6911 43.051C93.6493 40.9477 93.5796 38.8305 93.4821 36.6994H98.6219C98.3712 40.0563 98.1762 43.3922 98.0369 46.7073C97.9115 50.0084 97.8488 53.3374 97.8488 56.6943C97.8488 58.3379 97.8697 59.9745 97.9115 61.6042C97.9533 63.2339 98.009 64.8775 98.0787 66.535H93.315C93.3846 64.8775 93.4473 63.2269 93.503 61.5833C93.5587 59.9397 93.6145 58.2961 93.6702 56.6525C92.8762 56.6107 92.0823 56.5759 91.2883 56.548C90.5083 56.5062 89.7283 56.4853 88.9483 56.4853H88.7811V60.7894C88.7811 61.7644 88.7811 62.7255 88.7811 63.6726C88.7811 64.6198 88.7951 65.5739 88.8229 66.535H84.0384C84.108 64.5292 84.1498 62.5514 84.1637 60.6013C84.1916 58.6373 84.2055 56.6664 84.2055 54.6885C84.2055 48.6991 84.0802 42.7027 83.8294 36.6994H89.3871ZM115.232 52.0769C115.232 54.8766 115.037 57.2514 114.647 59.2015C114.271 61.1515 113.756 62.7394 113.101 63.9651C112.446 65.1769 111.673 66.0614 110.782 66.6186C109.89 67.1618 108.936 67.4334 107.919 67.4334C106.903 67.4334 105.948 67.1757 105.057 66.6604C104.166 66.1311 103.386 65.2675 102.717 64.0696C102.048 62.8717 101.519 61.2908 101.129 59.3268C100.753 57.3629 100.565 54.9462 100.565 52.0769C100.565 49.1936 100.753 46.7491 101.129 44.7433C101.519 42.7236 102.048 41.087 102.717 39.8334C103.386 38.5659 104.166 37.6535 105.057 37.0964C105.948 36.5253 106.903 36.2397 107.919 36.2397C108.936 36.2397 109.89 36.5183 110.782 37.0755C111.673 37.6187 112.446 38.5171 113.101 39.7707C113.756 41.0243 114.271 42.6609 114.647 44.6806C115.037 46.6864 115.232 49.1518 115.232 52.0769ZM110.573 52.0769C110.573 49.89 110.503 48.0444 110.364 46.5401C110.225 45.0358 110.03 43.817 109.779 42.8838C109.542 41.9366 109.264 41.2541 108.943 40.8363C108.623 40.4184 108.282 40.2095 107.919 40.2095C107.543 40.2095 107.188 40.4254 106.854 40.8572C106.533 41.275 106.248 41.9575 105.997 42.9047C105.76 43.8379 105.572 45.0637 105.433 46.5819C105.294 48.0862 105.224 49.9179 105.224 52.0769C105.224 54.2219 105.294 56.0257 105.433 57.4882C105.572 58.9368 105.76 60.1068 105.997 60.9983C106.248 61.8758 106.533 62.5026 106.854 62.8787C107.188 63.2548 107.543 63.4428 107.919 63.4428C108.282 63.4428 108.623 63.2478 108.943 62.8578C109.264 62.4538 109.542 61.8062 109.779 60.9147C110.03 60.0093 110.225 58.8323 110.364 57.3837C110.503 55.9351 110.573 54.1662 110.573 52.0769ZM132.26 66.7439C132.302 64.6128 132.351 62.4469 132.406 60.2461C132.42 59.3129 132.434 58.3239 132.448 57.2793C132.476 56.2346 132.497 55.176 132.511 54.1035C132.525 53.031 132.532 51.9585 132.532 50.8859C132.546 49.8134 132.553 48.7827 132.553 47.7937C132.553 47.1391 132.553 46.5192 132.553 45.9342C132.553 45.3353 132.539 44.7712 132.511 44.2419C132.344 45.2726 132.128 46.6028 131.863 48.2325C131.612 49.8482 131.348 51.6381 131.069 53.6021C130.791 55.5521 130.512 57.6205 130.233 59.8074C129.969 61.9942 129.732 64.1671 129.523 66.3261L125.553 66.2216C125.219 64.0487 124.892 61.9106 124.571 59.8074C124.265 57.7041 123.965 55.7053 123.673 53.811C123.394 51.9167 123.137 50.1616 122.9 48.5459C122.663 46.9301 122.461 45.5233 122.294 44.3254V51.5963C122.294 53.1006 122.301 54.6189 122.315 56.151C122.329 57.6693 122.343 59.104 122.357 60.4551C122.385 61.8062 122.419 63.0249 122.461 64.1114C122.503 65.1839 122.559 66.0196 122.628 66.6186L116.945 66.9529C117.154 65.7689 117.321 64.4387 117.447 62.9623C117.586 61.4858 117.69 59.9397 117.76 58.3239C117.844 56.7082 117.899 55.0646 117.927 53.3931C117.955 51.7217 117.969 50.099 117.969 48.525C117.969 46.9092 117.955 45.398 117.927 43.9912C117.913 42.5843 117.892 41.3516 117.865 40.293C117.823 39.0534 117.788 37.9182 117.76 36.8874C118.206 36.9571 118.672 37.0198 119.16 37.0755C119.647 37.1173 120.128 37.1521 120.602 37.1799C121.075 37.2078 121.535 37.2287 121.981 37.2426C122.426 37.2566 122.83 37.2635 123.192 37.2635C123.429 37.2635 123.645 37.2635 123.84 37.2635C124.049 37.2635 124.23 37.2566 124.383 37.2426C124.55 37.2426 124.697 37.2357 124.822 37.2217C125.491 41.8461 126.055 45.7462 126.514 48.922C126.974 52.0977 127.336 54.5144 127.601 56.1719C127.754 55.1133 127.9 54.0269 128.04 52.9126C128.193 51.7843 128.332 50.67 128.457 49.5697C128.583 48.4693 128.694 47.3968 128.792 46.3521C128.903 45.2935 129.001 44.2976 129.084 43.3644C129.279 41.1636 129.453 39.0325 129.607 36.971C129.913 36.9989 130.247 37.0267 130.609 37.0546C130.93 37.0824 131.306 37.1033 131.738 37.1173C132.183 37.1312 132.671 37.1382 133.2 37.1382C133.73 37.1382 134.301 37.1312 134.914 37.1173C135.526 37.0894 136.167 37.0407 136.836 36.971C136.669 42.1804 136.585 46.6864 136.585 50.489C136.585 53.2887 136.613 55.6984 136.669 57.718C136.738 59.7377 136.808 61.4092 136.877 62.7324C136.961 64.2925 137.066 65.5878 137.191 66.6186L132.26 66.7439ZM148.285 55.5242C147.853 55.4964 147.415 55.4755 146.969 55.4616C146.523 55.4476 146.077 55.4407 145.632 55.4407C145.381 55.4407 145.116 55.4476 144.838 55.4616C144.573 55.4755 144.309 55.4825 144.044 55.4825L143.96 62.9414C145.102 62.9135 146.21 62.8578 147.282 62.7742C148.369 62.6906 149.518 62.5583 150.73 62.3772V66.7439C149.95 66.7161 149.191 66.6952 148.452 66.6813C147.728 66.6673 147.004 66.6604 146.279 66.6604C145.193 66.6604 144.12 66.6743 143.062 66.7021C142.003 66.7439 140.91 66.7997 139.782 66.8693C139.907 64.2785 140.005 61.7156 140.074 59.1806C140.158 56.6316 140.2 54.0617 140.2 51.4709C140.2 48.9916 140.165 46.5332 140.095 44.0956C140.039 41.6441 139.935 39.1787 139.782 36.6994C141.425 36.8248 142.992 36.8874 144.483 36.8874C145.43 36.8874 146.37 36.8665 147.303 36.8248C148.25 36.769 149.26 36.6994 150.333 36.6158V41.4213C149.469 41.2681 148.613 41.1497 147.763 41.0661C146.927 40.9825 146.091 40.9407 145.256 40.9407H144.441C144.302 42.6818 144.204 44.416 144.148 46.1432C144.107 47.8703 144.072 49.6045 144.044 51.3456C144.406 51.3734 144.768 51.3874 145.13 51.3874C145.506 51.3874 145.889 51.3874 146.279 51.3874C146.6 51.3874 146.927 51.3874 147.261 51.3874C147.596 51.3874 147.937 51.3734 148.285 51.3456V55.5242Z" fill="black"/>
</svg>
