<svg width="24" height="25" viewBox="0 0 24 25" fill="none" xmlns="http://www.w3.org/2000/svg">
<path d="M17.8958 8.56982C17.8958 7.00637 17.2747 5.50695 16.1691 4.40142C15.0636 3.29589 13.5642 2.6748 12.0007 2.6748C10.4373 2.6748 8.93785 3.29589 7.83232 4.40142C6.72679 5.50695 6.10571 7.00637 6.10571 8.56982C6.10571 15.4473 3.1582 17.4124 3.1582 17.4124H20.8433C20.8433 17.4124 17.8958 15.4473 17.8958 8.56982Z" stroke="white" stroke-width="2.45626" stroke-linecap="round" stroke-linejoin="round"/>
<path d="M13.7022 21.3428C13.5295 21.6405 13.2815 21.8877 12.9832 22.0595C12.6849 22.2314 12.3467 22.3218 12.0025 22.3218C11.6582 22.3218 11.32 22.2314 11.0217 22.0595C10.7234 21.8877 10.4755 21.6405 10.3027 21.3428" stroke="white" stroke-width="2.45626" stroke-linecap="round" stroke-linejoin="round"/>
</svg>
